<?xml version="1.0" encoding="UTF-8" standalone="no"?>
<svg width="46px" height="68px" viewBox="0 0 46 68" version="1.1" xmlns="http://www.w3.org/2000/svg" xmlns:xlink="http://www.w3.org/1999/xlink" xmlns:sketch="http://www.bohemiancoding.com/sketch/ns">
    <title>Slice 1</title>
    <description>Created with Sketch (http://www.bohemiancoding.com/sketch)</description>
    <defs></defs>
    <g id="Page-1" stroke="none" stroke-width="1" fill="none" fill-rule="evenodd" sketch:type="MSPage">
        <path d="M5,6 L5,5 L29,5 L29,7 L7,7 L7,29 L5,29 L5,6 Z" id="Rectangle-1" fill="#000000" sketch:type="MSShapeGroup" transform="translate(17.000000, 17.000000) rotate(-45.000000) translate(-17.000000, -17.000000) "></path>
        <path d="M45.9705627,17 L29,33.9705627 L27.5857864,32.5563492 L43.1421356,17 L27.5857864,1.44365081 L29,0.0294372515 L45.263456,16.2928932 L45.9705627,17 Z" id="Rectangle-1" fill="#000000" sketch:type="MSShapeGroup"></path>
        <path d="M5,40 L5,39 L29,39 L29,41 L7,41 L7,63 L5,63 L5,40 Z" id="Rectangle-1" fill="#FFFFFF" sketch:type="MSShapeGroup" transform="translate(17.000000, 51.000000) rotate(-45.000000) translate(-17.000000, -51.000000) "></path>
        <path d="M45.9705627,51 L29,67.9705627 L27.5857864,66.5563492 L43.1421356,51 L27.5857864,35.4436508 L29,34.0294373 L45.263456,50.2928932 L45.9705627,51 Z" id="Rectangle-1" fill="#FFFFFF" sketch:type="MSShapeGroup"></path>
    </g>
</svg>